<svg xmlns="http://www.w3.org/2000/svg" viewBox="0 0 600 300" width="100%" height="100%">
  <!-- Background -->
  <rect width="600" height="300" fill="#ffffff" rx="10" ry="10"/>
  
  <!-- Chart Title -->
  <text x="300" y="30" font-family="'Montserrat', sans-serif" font-size="16" font-weight="600" text-anchor="middle" fill="#009846">Pest Control Efficacy (%)</text>
  
  <!-- X-Axis Labels -->
  <text x="100" y="265" font-family="'Montserrat', sans-serif" font-size="12" text-anchor="middle" fill="#333333">Bollworms</text>
  <text x="180" y="265" font-family="'Montserrat', sans-serif" font-size="12" text-anchor="middle" fill="#333333">Stem Borers</text>
  <text x="260" y="265" font-family="'Montserrat', sans-serif" font-size="12" text-anchor="middle" fill="#333333">Sucking Pests</text>
  <text x="340" y="265" font-family="'Montserrat', sans-serif" font-size="12" text-anchor="middle" fill="#333333">Soil Insects</text>
  <text x="420" y="265" font-family="'Montserrat', sans-serif" font-size="12" text-anchor="middle" fill="#333333">Storage Pests</text>
  
  <!-- Y-Axis Labels -->
  <text x="50" y="240" font-family="'Montserrat', sans-serif" font-size="10" text-anchor="end" fill="#333333">0%</text>
  <text x="50" y="206" font-family="'Montserrat', sans-serif" font-size="10" text-anchor="end" fill="#333333">20%</text>
  <text x="50" y="172" font-family="'Montserrat', sans-serif" font-size="10" text-anchor="end" fill="#333333">40%</text>
  <text x="50" y="138" font-family="'Montserrat', sans-serif" font-size="10" text-anchor="end" fill="#333333">60%</text>
  <text x="50" y="104" font-family="'Montserrat', sans-serif" font-size="10" text-anchor="end" fill="#333333">80%</text>
  <text x="50" y="70" font-family="'Montserrat', sans-serif" font-size="10" text-anchor="end" fill="#333333">100%</text>
  
  <!-- X-Axis Line -->
  <line x1="60" y1="240" x2="480" y2="240" stroke="#e0e0e0" stroke-width="1"/>
  
  <!-- Y-Axis Line -->
  <line x1="60" y1="70" x2="60" y2="240" stroke="#e0e0e0" stroke-width="1"/>
  
  <!-- Grid Lines -->
  <line x1="60" y1="206" x2="480" y2="206" stroke="#f0f0f0" stroke-width="1" stroke-dasharray="5,5"/>
  <line x1="60" y1="172" x2="480" y2="172" stroke="#f0f0f0" stroke-width="1" stroke-dasharray="5,5"/>
  <line x1="60" y1="138" x2="480" y2="138" stroke="#f0f0f0" stroke-width="1" stroke-dasharray="5,5"/>
  <line x1="60" y1="104" x2="480" y2="104" stroke="#f0f0f0" stroke-width="1" stroke-dasharray="5,5"/>
  <line x1="60" y1="70" x2="480" y2="70" stroke="#f0f0f0" stroke-width="1" stroke-dasharray="5,5"/>
  
  <!-- Super FS Bars -->
  <rect x="80" y="78.5" width="30" height="161.5" rx="4" ry="4" fill="rgba(0, 152, 70, 0.7)"/>
  <rect x="160" y="74" width="30" height="166" rx="4" ry="4" fill="rgba(0, 152, 70, 0.7)"/>
  <rect x="240" y="83" width="30" height="157" rx="4" ry="4" fill="rgba(0, 152, 70, 0.7)"/>
  <rect x="320" y="80.2" width="30" height="159.8" rx="4" ry="4" fill="rgba(0, 152, 70, 0.7)"/>
  <rect x="400" y="87" width="30" height="153" rx="4" ry="4" fill="rgba(0, 152, 70, 0.7)"/>
  
  <!-- Competitor Bars -->
  <rect x="115" y="100.4" width="30" height="139.6" rx="4" ry="4" fill="rgba(153, 153, 153, 0.7)"/>
  <rect x="195" y="95.5" width="30" height="144.5" rx="4" ry="4" fill="rgba(153, 153, 153, 0.7)"/>
  <rect x="275" y="104" width="30" height="136" rx="4" ry="4" fill="rgba(153, 153, 153, 0.7)"/>
  <rect x="355" y="107.2" width="30" height="132.8" rx="4" ry="4" fill="rgba(153, 153, 153, 0.7)"/>
  <rect x="435" y="112.5" width="30" height="127.5" rx="4" ry="4" fill="rgba(153, 153, 153, 0.7)"/>
  
  <!-- Data Labels Super FS -->
  <text x="95" y="73" font-family="'Montserrat', sans-serif" font-size="11" font-weight="600" text-anchor="middle" fill="#009846">95%</text>
  <text x="175" y="69" font-family="'Montserrat', sans-serif" font-size="11" font-weight="600" text-anchor="middle" fill="#009846">98%</text>
  <text x="255" y="78" font-family="'Montserrat', sans-serif" font-size="11" font-weight="600" text-anchor="middle" fill="#009846">92%</text>
  <text x="335" y="75" font-family="'Montserrat', sans-serif" font-size="11" font-weight="600" text-anchor="middle" fill="#009846">94%</text>
  <text x="415" y="82" font-family="'Montserrat', sans-serif" font-size="11" font-weight="600" text-anchor="middle" fill="#009846">90%</text>
  
  <!-- Data Labels Competitor -->
  <text x="130" y="95" font-family="'Montserrat', sans-serif" font-size="11" text-anchor="middle" fill="#666666">82%</text>
  <text x="210" y="90" font-family="'Montserrat', sans-serif" font-size="11" text-anchor="middle" fill="#666666">85%</text>
  <text x="290" y="99" font-family="'Montserrat', sans-serif" font-size="11" text-anchor="middle" fill="#666666">80%</text>
  <text x="370" y="102" font-family="'Montserrat', sans-serif" font-size="11" text-anchor="middle" fill="#666666">78%</text>
  <text x="450" y="107" font-family="'Montserrat', sans-serif" font-size="11" text-anchor="middle" fill="#666666">75%</text>
  
  <!-- Legend -->
  <rect x="500" y="120" width="16" height="16" rx="2" ry="2" fill="rgba(0, 152, 70, 0.7)"/>
  <text x="525" y="132" font-family="'Montserrat', sans-serif" font-size="12" fill="#333333">Super FS</text>
  
  <rect x="500" y="145" width="16" height="16" rx="2" ry="2" fill="rgba(153, 153, 153, 0.7)"/>
  <text x="538" y="157" font-family="'Montserrat', sans-serif" font-size="12" fill="#333333">Competitor</text>
</svg>