<svg xmlns="http://www.w3.org/2000/svg" viewBox="0 0 600 300" width="100%" height="100%">
  <!-- Background -->
  <rect width="600" height="300" fill="#ffffff" rx="10" ry="10"/>
  
  <!-- Chart Title -->
  <text x="300" y="30" font-family="'Montserrat', sans-serif" font-size="16" font-weight="600" text-anchor="middle" fill="#009846">Yield Improvement (%)</text>
  
  <!-- X-Axis Labels -->
  <text x="100" y="265" font-family="'Montserrat', sans-serif" font-size="12" text-anchor="middle" fill="#333333">Cotton</text>
  <text x="180" y="265" font-family="'Montserrat', sans-serif" font-size="12" text-anchor="middle" fill="#333333">Rice</text>
  <text x="260" y="265" font-family="'Montserrat', sans-serif" font-size="12" text-anchor="middle" fill="#333333">Sugarcane</text>
  <text x="340" y="265" font-family="'Montserrat', sans-serif" font-size="12" text-anchor="middle" fill="#333333">Vegetables</text>
  <text x="420" y="265" font-family="'Montserrat', sans-serif" font-size="12" text-anchor="middle" fill="#333333">Pulses</text>
  
  <!-- Y-Axis Labels -->
  <text x="50" y="240" font-family="'Montserrat', sans-serif" font-size="10" text-anchor="end" fill="#333333">0%</text>
  <text x="50" y="200" font-family="'Montserrat', sans-serif" font-size="10" text-anchor="end" fill="#333333">5%</text>
  <text x="50" y="160" font-family="'Montserrat', sans-serif" font-size="10" text-anchor="end" fill="#333333">10%</text>
  <text x="50" y="120" font-family="'Montserrat', sans-serif" font-size="10" text-anchor="end" fill="#333333">15%</text>
  <text x="50" y="80" font-family="'Montserrat', sans-serif" font-size="10" text-anchor="end" fill="#333333">20%</text>
  <text x="50" y="40" font-family="'Montserrat', sans-serif" font-size="10" text-anchor="end" fill="#333333">25%</text>
  
  <!-- X-Axis Line -->
  <line x1="60" y1="240" x2="480" y2="240" stroke="#e0e0e0" stroke-width="1"/>
  
  <!-- Y-Axis Line -->
  <line x1="60" y1="40" x2="60" y2="240" stroke="#e0e0e0" stroke-width="1"/>
  
  <!-- Grid Lines -->
  <line x1="60" y1="200" x2="480" y2="200" stroke="#f0f0f0" stroke-width="1" stroke-dasharray="5,5"/>
  <line x1="60" y1="160" x2="480" y2="160" stroke="#f0f0f0" stroke-width="1" stroke-dasharray="5,5"/>
  <line x1="60" y1="120" x2="480" y2="120" stroke="#f0f0f0" stroke-width="1" stroke-dasharray="5,5"/>
  <line x1="60" y1="80" x2="480" y2="80" stroke="#f0f0f0" stroke-width="1" stroke-dasharray="5,5"/>
  <line x1="60" y1="40" x2="480" y2="40" stroke="#f0f0f0" stroke-width="1" stroke-dasharray="5,5"/>
  
  <!-- Super FS Bars -->
  <rect x="80" y="80" width="30" height="160" rx="4" ry="4" fill="rgba(0, 152, 70, 0.7)"/>
  <rect x="160" y="104" width="30" height="136" rx="4" ry="4" fill="rgba(0, 152, 70, 0.7)"/>
  <rect x="240" y="70" width="30" height="170" rx="4" ry="4" fill="rgba(0, 152, 70, 0.7)"/>
  <rect x="320" y="90" width="30" height="150" rx="4" ry="4" fill="rgba(0, 152, 70, 0.7)"/>
  <rect x="400" y="120" width="30" height="120" rx="4" ry="4" fill="rgba(0, 152, 70, 0.7)"/>
  
  <!-- Competitor Bars -->
  <rect x="115" y="125" width="30" height="115" rx="4" ry="4" fill="rgba(153, 153, 153, 0.7)"/>
  <rect x="195" y="150" width="30" height="90" rx="4" ry="4" fill="rgba(153, 153, 153, 0.7)"/>
  <rect x="275" y="120" width="30" height="120" rx="4" ry="4" fill="rgba(153, 153, 153, 0.7)"/>
  <rect x="355" y="135" width="30" height="105" rx="4" ry="4" fill="rgba(153, 153, 153, 0.7)"/>
  <rect x="435" y="160" width="30" height="80" rx="4" ry="4" fill="rgba(153, 153, 153, 0.7)"/>
  
  <!-- Data Labels Super FS -->
  <text x="95" y="75" font-family="'Montserrat', sans-serif" font-size="11" font-weight="600" text-anchor="middle" fill="#009846">22%</text>
  <text x="175" y="99" font-family="'Montserrat', sans-serif" font-size="11" font-weight="600" text-anchor="middle" fill="#009846">18%</text>
  <text x="255" y="65" font-family="'Montserrat', sans-serif" font-size="11" font-weight="600" text-anchor="middle" fill="#009846">25%</text>
  <text x="335" y="85" font-family="'Montserrat', sans-serif" font-size="11" font-weight="600" text-anchor="middle" fill="#009846">20%</text>
  <text x="415" y="115" font-family="'Montserrat', sans-serif" font-size="11" font-weight="600" text-anchor="middle" fill="#009846">15%</text>
  
  <!-- Data Labels Competitor -->
  <text x="130" y="120" font-family="'Montserrat', sans-serif" font-size="11" text-anchor="middle" fill="#666666">15%</text>
  <text x="210" y="145" font-family="'Montserrat', sans-serif" font-size="11" text-anchor="middle" fill="#666666">11%</text>
  <text x="290" y="115" font-family="'Montserrat', sans-serif" font-size="11" text-anchor="middle" fill="#666666">16%</text>
  <text x="370" y="130" font-family="'Montserrat', sans-serif" font-size="11" text-anchor="middle" fill="#666666">13%</text>
  <text x="450" y="155" font-family="'Montserrat', sans-serif" font-size="11" text-anchor="middle" fill="#666666">10%</text>
  
  <!-- Legend -->
  <rect x="500" y="120" width="16" height="16" rx="2" ry="2" fill="rgba(0, 152, 70, 0.7)"/>
  <text x="525" y="132" font-family="'Montserrat', sans-serif" font-size="12" fill="#333333">Super FS</text>
  
  <rect x="500" y="145" width="16" height="16" rx="2" ry="2" fill="rgba(153, 153, 153, 0.7)"/>
  <text x="538" y="157" font-family="'Montserrat', sans-serif" font-size="12" fill="#333333">Competitor</text>
</svg>